<svg width="70" height="70" viewBox="0 0 70 70" fill="none" xmlns="http://www.w3.org/2000/svg">
<path fill-rule="evenodd" clip-rule="evenodd" d="M15 0C6.71573 0 0 6.71573 0 15V55C0 63.2843 6.71573 70 15 70H55C63.2843 70 70 63.2843 70 55V15C70 6.71573 63.2843 0 55 0H15ZM14.619 51H18.597V17.646H14.823L6.918 22.44V26.775L14.619 22.032V51ZM28.4524 45.084C27.0244 43.214 26.2424 40.477 26.1064 36.873C28.3504 34.391 31.0024 33.15 34.0624 33.15C35.8984 33.15 37.3774 33.779 38.4994 35.037C39.6554 36.295 40.2334 38.029 40.2334 40.239C40.2334 42.449 39.6554 44.268 38.4994 45.696C37.3774 47.124 35.7794 47.838 33.7054 47.838C31.6314 47.838 29.8804 46.92 28.4524 45.084ZM41.7634 32.436C40.0294 30.498 37.5644 29.529 34.3684 29.529C31.2064 29.529 28.5034 30.702 26.2594 33.048C26.7014 29.41 27.8744 26.401 29.7784 24.021C31.6824 21.607 34.2324 20.4 37.4284 20.4C39.0604 20.4 40.6074 20.723 42.0694 21.369V17.442C40.4714 16.932 38.9074 16.677 37.3774 16.677C32.6174 16.677 28.8774 18.496 26.1574 22.134C23.4374 25.772 22.0774 30.362 22.0774 35.904C22.0774 40.562 23.0974 44.336 25.1374 47.226C27.1774 50.116 30.1014 51.561 33.9094 51.561C37.0714 51.561 39.6044 50.507 41.5084 48.399C43.4464 46.291 44.4154 43.588 44.4154 40.29C44.4154 38.4893 44.1518 36.8913 43.6247 35.496H52.1861V45.135H55.9601V35.496H65.4971V31.824H55.9601V22.185H52.1861V31.824H43.0571V34.2541C42.6973 33.5931 42.2661 32.987 41.7634 32.436Z" fill="#938852"/>
</svg>
