<svg width="47" height="47" viewBox="0 0 47 47" fill="none" xmlns="http://www.w3.org/2000/svg">
<path d="M7.54296 16.7975C7.01205 15.878 2.28616 6.86179 2.83203 6.78516C3.3779 6.70854 28.3533 6.78516 29.789 6.78516C31.2247 6.78516 31.2247 4.86105 29.789 4.58009C28.3533 4.29913 2.45067 4.94193 2.04687 4.58009C1.64308 4.21825 1 2.28986 1 1.60024C1 0.91062 1 1.00427 1.64308 1.00427H39.7343C39.7343 1.00427 40.2279 1.00427 40.2578 1.60024C40.2877 2.19621 40.2279 11.9318 40.2578 13.2217C40.2877 14.5115 40.2279 14.503 39.7343 15.0096C39.2408 15.5161 31.8678 24.1449 31.3593 24.8431C30.8509 25.5412 30.5817 26.7161 31.3593 26.929C32.137 27.1418 44.206 26.4989 45.7539 26.929C47.3017 27.359 41.0429 39.4443 41.0429 39.4443C41.0429 39.4443 40.2968 40.6363 39.9961 40.6363H36.5937C36.426 40.6363 39.5848 46 39.2109 46H35.5468C35.0832 46 34.9975 40.6363 34.5835 40.6363H31.8678C31.6 40.6363 32.3763 46 30.8359 46H26.9101C26.7232 46 30.4304 40.6363 29.789 40.6363H26.3867C25.0296 40.6363 23.5078 39.4443 23.5078 39.4443C23.5078 39.4443 21.6085 37.9502 20.6289 35.8685C19.6493 33.7869 20 29.5 20 29.5C20 28.6151 20.9093 26.2418 22 25C23.0907 23.7582 31.3593 14.3753 31.3593 14.1156C31.3593 13.8559 31.2143 13.2131 30.3125 13.2217C29.4107 13.2302 24.1509 19.0026 22.9844 19.7773C21.8178 20.5521 13.1736 20.5521 10.9453 19.7773C8.71696 19.0026 8.07388 17.717 7.54296 16.7975Z" fill="black" stroke="#938852" stroke-width="0.7"/>
<ellipse cx="37" cy="4.85664" rx="1.28571" ry="1.28559" fill="#938852"/>
<path d="M2.953 41.681H1.245C1.245 41.2937 1.427 41.1 1.791 41.1H5.312C5.312 41.4873 5.13 41.681 4.766 41.681H3.611V45.517C3.611 45.6943 3.555 45.8297 3.443 45.923C3.331 46.0163 3.16767 46.063 2.953 46.063V41.681ZM8.18512 46.063C7.79312 46.063 7.45245 46.007 7.16312 45.895C6.87845 45.783 6.66145 45.6337 6.51212 45.447C6.36278 45.2603 6.28812 45.0597 6.28812 44.845C6.28812 44.6677 6.33478 44.5323 6.42812 44.439C6.52145 44.341 6.66378 44.292 6.85512 44.292C6.85512 44.6887 6.97412 44.992 7.21212 45.202C7.45012 45.4073 7.78378 45.51 8.21312 45.51C8.62378 45.51 8.93878 45.4423 9.15812 45.307C9.37745 45.167 9.48712 44.9617 9.48712 44.691C9.48712 44.5277 9.44512 44.3947 9.36112 44.292C9.28178 44.1847 9.14412 44.0937 8.94812 44.019C8.75678 43.9397 8.47912 43.8603 8.11512 43.781C7.68578 43.6877 7.34512 43.5803 7.09312 43.459C6.84112 43.333 6.65678 43.1813 6.54012 43.004C6.42345 42.8267 6.36512 42.6073 6.36512 42.346C6.36512 42.0847 6.43745 41.856 6.58212 41.66C6.73145 41.4593 6.94145 41.3053 7.21212 41.198C7.48278 41.0907 7.79778 41.037 8.15712 41.037C8.49778 41.037 8.80112 41.086 9.06712 41.184C9.33778 41.2773 9.54778 41.4127 9.69712 41.59C9.85112 41.7627 9.92812 41.9587 9.92812 42.178C9.92812 42.3133 9.88378 42.4207 9.79512 42.5C9.71112 42.5747 9.57812 42.612 9.39612 42.612C9.34478 42.2573 9.21878 41.9983 9.01812 41.835C8.82212 41.6717 8.53512 41.59 8.15712 41.59C7.79312 41.59 7.51312 41.6553 7.31712 41.786C7.12112 41.912 7.02312 42.0917 7.02312 42.325C7.02312 42.4883 7.05812 42.6237 7.12812 42.731C7.20278 42.8337 7.32645 42.9223 7.49912 42.997C7.67645 43.0717 7.92378 43.144 8.24112 43.214C8.71712 43.3167 9.09045 43.431 9.36112 43.557C9.63645 43.683 9.83478 43.837 9.95612 44.019C10.0775 44.201 10.1381 44.425 10.1381 44.691C10.1381 45.1157 9.96078 45.4517 9.60612 45.699C9.25145 45.9417 8.77778 46.063 8.18512 46.063ZM13.3785 46.063C12.9911 46.063 12.6435 45.9883 12.3355 45.839C12.0321 45.685 11.7941 45.475 11.6215 45.209C11.4488 44.9383 11.3625 44.6397 11.3625 44.313V42.773C11.3625 42.4463 11.4488 42.1523 11.6215 41.891C11.7941 41.625 12.0321 41.4173 12.3355 41.268C12.6435 41.114 12.9911 41.037 13.3785 41.037C13.7705 41.037 14.1181 41.114 14.4215 41.268C14.7295 41.4173 14.9698 41.625 15.1425 41.891C15.3151 42.1523 15.4015 42.4463 15.4015 42.773V44.313C15.4015 44.6397 15.3151 44.9383 15.1425 45.209C14.9698 45.475 14.7295 45.685 14.4215 45.839C14.1135 45.9883 13.7658 46.063 13.3785 46.063ZM13.3785 45.489C13.8125 45.489 14.1508 45.3817 14.3935 45.167C14.6361 44.9523 14.7575 44.6653 14.7575 44.306V42.787C14.7575 42.4277 14.6361 42.143 14.3935 41.933C14.1508 41.7183 13.8125 41.611 13.3785 41.611C12.9491 41.611 12.6131 41.7183 12.3705 41.933C12.1278 42.143 12.0065 42.4277 12.0065 42.787V44.306C12.0065 44.6653 12.1278 44.9523 12.3705 45.167C12.6131 45.3817 12.9491 45.489 13.3785 45.489ZM17.9114 41.681H16.2034C16.2034 41.2937 16.3854 41.1 16.7494 41.1H20.2704C20.2704 41.4873 20.0884 41.681 19.7244 41.681H18.5694V45.517C18.5694 45.6943 18.5134 45.8297 18.4014 45.923C18.2894 46.0163 18.1261 46.063 17.9114 46.063V41.681Z" fill="#938852"/>
</svg>
